<?xml version="1.0" standalone="no"?>
<!DOCTYPE svg PUBLIC "-//W3C//DTD SVG 1.1//EN" "http://www.w3.org/Graphics/SVG/1.1/DTD/svg11.dtd" >
<svg xmlns="http://www.w3.org/2000/svg">
<metadata></metadata>
<defs>
<font id="PictosRegular" horiz-adv-x="1884" >
<font-face units-per-em="2048" ascent="1536" descent="-512" />
<missing-glyph horiz-adv-x="1024" />
<glyph horiz-adv-x="0" />
<glyph horiz-adv-x="2048" />
<glyph unicode="&#xd;" horiz-adv-x="1024" />
<glyph unicode=" "  horiz-adv-x="1024" />
<glyph unicode="&#x09;" horiz-adv-x="1024" />
<glyph unicode="&#xa0;" horiz-adv-x="1024" />
<glyph unicode="!" horiz-adv-x="1916" d="M122 -7q-52 91 23 218l635 1094q74 127 180 127t179 -127l633 -1094q75 -127 22 -218t-201 -91h-1271q-148 0 -200 91zM836 1014l53 -631h153l54 631h-260zM856 205q0 -46 32.5 -78.5t76.5 -32.5q46 0 78 32.5t32 78.5t-32 77t-78 31q-45 0 -77 -31.5t-32 -76.5z" />
<glyph unicode="&#x22;" horiz-adv-x="1771" d="M106 49v543q1 93 8 169.5t25.5 158t48.5 145.5t79 123.5t115 100.5t158.5 68t207.5 34v-322q-136 0 -195 -95.5t-59 -301.5l-9 -2h172q37 0 64 -27t27 -65v-529q0 -37 -27 -63.5t-64 -26.5h-460q-37 0 -64 26.5t-27 63.5zM1008 49v529q0 94 6.5 172t24.5 161t48 148 t79 125.5t115.5 102.5t160 69.5t209.5 34.5v-322q-137 0 -196.5 -95.5t-59.5 -301.5l-9 -2h173q37 0 63.5 -27t26.5 -65v-529q0 -37 -26.5 -63.5t-63.5 -26.5h-459q-38 0 -65 26.5t-27 63.5z" />
<glyph unicode="#" horiz-adv-x="1531" d="M83.5 966.5q-4.5 8.5 2.5 20.5l64 94q7 12 24 20.5t31 8.5h153v135q0 15 7.5 34t17.5 28l98 100q10 10 29 17.5t33 7.5h442q37 0 62 -25l106 -107q11 -11 19 -29.5t8 -31.5v-129h145q15 0 31.5 -8.5t23.5 -20.5l64 -94q8 -12 3 -20.5t-20 -8.5h-98v-1161q0 -13 -10.5 -24 t-24.5 -11h-1050q-14 0 -24.5 11t-10.5 24v1161h-107q-14 0 -18.5 8.5zM358 -53q0 -13 11 -24t24 -11h752q13 0 24 11t11 24v975q0 13 -9.5 23.5t-23.5 12.5h-754q-14 0 -24.5 -10.5t-10.5 -25.5v-975zM459 45v776q0 14 11 24.5t26 10.5h43q15 0 25.5 -10.5t10.5 -24.5v-776 q0 -14 -10.5 -24.5t-25.5 -10.5h-43q-15 0 -26 10.5t-11 24.5zM508 1110h520v66q0 40 -24 61l-19 20q-10 10 -28.5 17.5t-32.5 7.5h-318q-38 0 -68 -30t-30 -68v-74zM709 45v776q0 14 10.5 24.5t25.5 10.5h43q15 0 25 -10.5t10 -24.5v-776q0 -14 -10 -24.5t-25 -10.5h-43 q-15 0 -25.5 10.5t-10.5 24.5zM958 45v776q0 13 11 24t24 11h45q14 0 24.5 -11t10.5 -24v-776q0 -13 -10.5 -24t-24.5 -11h-45q-13 0 -24 11t-11 24z" />
<glyph unicode="$" horiz-adv-x="1828" d="M45 1112q0 29 20.5 49.5t49.5 20.5h360q23 0 42.5 -15.5t25.5 -38.5l37 -149h1030l10 31q6 23 24.5 36t41.5 13q32 0 51.5 -20.5t19.5 -49.5q0 -6 -4 -18l-180 -600q-6 -23 -24.5 -37.5t-41.5 -14.5h-854q-25 0 -43.5 15.5t-23.5 38.5l-166 669h-305q-29 0 -49.5 20.5 t-20.5 49.5zM614 840l93 -381h747q22 74 63 209.5t52 171.5h-955zM678 100q0 59 41.5 100.5t99.5 41.5q59 0 100.5 -42t41.5 -100t-41.5 -99.5t-100.5 -41.5t-100 41.5t-41 99.5zM776 719h254v-139h-221zM1153 580v139h248l-37 -139h-211zM1208 100q0 58 42 100t100 42 t99.5 -41.5t41.5 -100.5q0 -58 -41.5 -99.5t-99.5 -41.5q-59 0 -100.5 41.5t-41.5 99.5z" />
<glyph unicode="%" horiz-adv-x="1849" d="M66 410v311q0 37 27 64.5t65 27.5h8l88 -8q69 172 219 289l-4 225v4q0 41 30 71.5t74 30.5q30 0 52 -14l262 -147q53 6 104 6q155 0 298 -53t250.5 -145t172 -224t64.5 -281q0 -162 -77 -304.5t-210 -239.5l22 -197v-8q0 -40 -26.5 -66t-65.5 -26h-303q-38 0 -65 26.5 t-27 65.5v10l4 37q-12 -2 -37 -2h-20l4 -35v-10q0 -39 -26.5 -65.5t-65.5 -26.5h-303q-39 0 -66 26.5t-27 65.5v10l23 184q-176 122 -254 314l-90 -9h-8q-38 0 -65 27.5t-27 65.5zM180 434l154 17l14 -45q67 -197 254 -318l31 -18l-27 -230h252l-18 152l71 -8q27 -4 80 -4 q49 0 96 6l74 8l-18 -154h252l-31 238l31 18q125 84 195.5 207t70.5 264q0 166 -94 302t-247 211t-329 75q-32 0 -127 -10l-278 158l4 -267l-25 -16q-161 -118 -217 -295l-14 -45l-154 14v-260zM426 701.5q10 44.5 47 84.5q38 41 83.5 53.5t70.5 -10.5q23 -23 13 -67.5 t-48 -85.5t-82.5 -53.5t-69.5 10.5q-24 24 -14 68.5zM967 1010q1 25 18.5 41t40.5 16l14 -1q15 -1 37.5 -4.5t52.5 -10t65.5 -18.5t72 -28.5t76 -43t73.5 -58.5q29 -27 11 -62.5t-52 -35.5q-23 0 -39 16q-49 48 -121 79.5t-114 39.5t-72 10h-8q-23 1 -39 19t-16 41z" />
<glyph unicode="&#x26;" horiz-adv-x="1499" d="M35 424v405h512v512h405v-512h512v-405h-512v-512h-405v512h-512z" />
<glyph unicode="'" horiz-adv-x="1859" d="M27 801l2 2q183 183 421 278t479 95t479 -95t421 -278q0 -4 4 -4l-115 -115q-160 160 -368 244.5t-419 85.5t-419.5 -82t-368.5 -244q-2 0 -2 -2zM287 541q105 105 236 170.5t269.5 84.5t277 -1t268.5 -85.5t235 -170.5l-115 -115q0 2 -2 2q-143 143 -335.5 194 t-384.5 0.5t-335 -192.5zM543 285q78 78 180.5 119t205.5 41t205.5 -41t180.5 -119q2 0 2 -2l-113 -113q-2 0 -2 2q-75 74 -174 100t-198 0t-173 -100zM803 27q54 53 129 53t129 -53l-129 -129z" />
<glyph unicode="(" horiz-adv-x="1374" d="M92 -160v895h154v262q0 179 127 306t305 127h16q118 0 217.5 -58t157 -158t57.5 -217v-262h158v-895h-1192zM463 735h448v262q0 89 -64 152t-153 63h-16q-89 0 -152 -63t-63 -152v-262zM553 4h270l-65 289q65 42 65 117q0 57 -39 96t-96 39q-56 0 -95.5 -39t-39.5 -96 q0 -36 18.5 -67t49.5 -48z" />
<glyph unicode=")" horiz-adv-x="1820" d="M51 -162v897h821v262q0 180 127.5 306.5t307.5 126.5h6h8q180 0 307 -126.5t127 -306.5v-262h-217v60l74 69v27h-74v106q0 89 -63 152t-154 63h-14q-91 0 -154 -63t-63 -152v-262h157v-897h-1196zM510 0h272l-67 291q67 41 67 117q0 57 -39.5 97t-95.5 40q-57 0 -97 -40 t-40 -97q0 -36 18.5 -67t49.5 -50z" />
<glyph unicode="*" horiz-adv-x="1591" d="M80 203l399 401l-399 400l315 315l400 -399l399 399l315 -315l-399 -400l399 -401l-315 -314l-399 400l-400 -400z" />
<glyph unicode="+" d="M82 578q0 140 43.5 271.5t123 237t185 185t237 123t271.5 43.5t271.5 -43.5t237 -123t185 -185t123 -237t43.5 -271.5q0 -175 -68 -334.5t-183 -274.5t-274.5 -183.5t-334.5 -68.5t-334.5 68.5t-274.5 183.5t-183 274.5t-68 334.5zM426 537q0 -31 22 -53.5t54 -22.5h246 q31 0 53 -21.5t22 -52.5v-248q0 -31 21.5 -52t52.5 -21h84q31 0 53.5 21.5t22.5 51.5v248q0 31 21 52.5t52 21.5h248q31 0 52.5 22.5t21.5 53.5v84q0 31 -21.5 52t-52.5 21h-248q-30 0 -51.5 22.5t-21.5 53.5v248q0 31 -22.5 52.5t-53.5 21.5h-84q-31 0 -52.5 -21.5 t-21.5 -52.5v-248q0 -31 -22 -53.5t-53 -22.5h-246q-32 0 -54 -21t-22 -52v-84z" />
<glyph unicode="," horiz-adv-x="1873" d="M133 580q0 164 64 312.5t171.5 256.5t256.5 171.5t313 63.5t313 -63.5t256.5 -171.5t171.5 -256.5t64 -312.5q0 -218 -108 -403.5t-293.5 -293.5t-403.5 -108t-403.5 108t-293.5 293.5t-108 403.5z" />
<glyph unicode="-" horiz-adv-x="1886" d="M82 567q0 175 68 334.5t183.5 275.5t275 184.5t335.5 68.5q175 0 334.5 -68.5t274.5 -184.5t183 -275.5t68 -334.5t-68 -334.5t-183 -275t-274.5 -184t-334.5 -68.5q-176 0 -335.5 68.5t-275 184t-183.5 275t-68 334.5zM459 528q0 -40 28 -68t68 -28h770q40 0 68 28 t28 68v80q0 40 -28 68.5t-68 28.5h-770q-40 0 -68 -28.5t-28 -68.5v-80z" />
<glyph unicode="." horiz-adv-x="1935" d="M113 616q0 77 55 132t133 55q76 0 131 -55t55 -132q0 -78 -54.5 -133t-131.5 -55q-78 0 -133 55t-55 133zM780 616q0 76 55 131.5t132 55.5q78 0 133 -55t55 -132q0 -78 -55 -133t-133 -55q-77 0 -132 55t-55 133zM1446 616q0 76 55.5 131.5t132.5 55.5q78 0 133.5 -55 t55.5 -132q0 -78 -55.5 -133t-133.5 -55q-77 0 -132.5 55t-55.5 133z" />
<glyph unicode="/" horiz-adv-x="1867" d="M204 753l3 29v47q26 -6 77 -15t230.5 -23.5t384.5 -14.5h53q-2 200 -5 361.5t-5 223.5l-2 62q101 -62 168 -74t190 13q23 -32 31.5 -43t32 -38.5t41 -40t45.5 -30t61 -27t72 -14.5q-5 -57 5.5 -115t29.5 -100t38.5 -76t33.5 -52l14 -17l-105 -10v-17q2 -11 3.5 -29.5 t-5 -73t-25 -104t-67 -109.5t-121 -103.5t-197 -73t-284.5 -29.5t-285 29t-196 75t-120.5 101.5t-67 111t-24.5 101.5t-4 75zM424 -12q0 69 49.5 118.5t118.5 49.5t118.5 -49.5t49.5 -118.5q0 -70 -49.5 -119t-118.5 -49t-118.5 49t-49.5 119zM1040 -12q0 69 49 118.5 t119 49.5q69 0 118.5 -49.5t49.5 -118.5q0 -70 -49.5 -120t-118.5 -50q-70 0 -119 49.5t-49 120.5z" />
<glyph unicode="0" horiz-adv-x="1820" d="M55 616l258 258l260 -258h-161q0 -101 39.5 -192.5t106 -158t159 -105.5t194.5 -39q123 0 230.5 56t175.5 153q93 -95 137 -137q-97 -124 -239 -194.5t-304 -70.5q-188 0 -347 92t-251.5 250t-93.5 346h-164zM365 1042q95 125 238 197t308 72q187 0 346.5 -92.5 t252 -251.5t92.5 -346v-5h163l-260 -258l-258 258h164v5q0 135 -67.5 250t-182.5 182t-250 67q-125 0 -232.5 -58t-176.5 -157z" />
<glyph unicode="1" horiz-adv-x="1521" d="M57 420q0 143 56 274t151 225.5t226 150.5t274 56q33 0 51 -2v308q68 -70 145.5 -148t172.5 -172t147 -147q-72 -70 -204.5 -202.5l-160.5 -160.5l-100 -102v323q-36 4 -51 4q-169 0 -288.5 -119t-119.5 -288q0 -167 119.5 -286.5t288.5 -119.5q167 0 286 119.5 t119 286.5v61h299v-61q0 -143 -55.5 -273.5t-150 -225t-225 -150.5t-273.5 -56q-191 0 -354 94.5t-258 257t-95 353.5z" />
<glyph unicode="2" horiz-adv-x="1882" d="M74 569q0 176 68.5 336t184 276t275.5 184.5t336 68.5t336 -68.5t275.5 -184.5t184 -276t68.5 -336t-68.5 -336t-184 -275.5t-275.5 -184t-336 -68.5t-336 68.5t-275.5 184t-184 275.5t-68.5 336zM397 537h43l17 77h75l17 -77h41l-76 329h-39zM463 651l31 152l30 -152 h-61zM598 338q0 -28 20 -47t48 -19q8 0 28 4v41q-10 -14 -28 -14q-15 0 -25 10t-10 25t10 25t25 10q19 0 28 -15v41q-18 7 -30 7q-27 0 -46.5 -20t-19.5 -48zM633 831h55v-294h41v294h55v35h-151v-35zM752 274h32v50l31 -50h41l-39 54q27 3 27 34q0 39 -43 39h-49v-127z M784 344v33h4q23 0 23 -17q0 -16 -23 -16h-4zM864 537h41v149h74v-149h39v329h-39v-143h-74v143h-41v-329zM901 274h74v29h-39v23h37v26h-37v21h39v28h-74v-127zM1030 274h74v29h-41v23h39v26h-39v21h41v28h-74v-127zM1110 537h127v36h-88v111h76v37h-76v110h88v35h-127 v-329zM1159 274h33v56h2l41 -56h43l-55 68l51 59h-41l-39 -51h-2v51h-33v-127zM1315 866l61 -196v-133h39v133l62 196h-43l-37 -139l-37 139h-45z" />
<glyph unicode="3" horiz-adv-x="1777" d="M29 573q0 175 68 334.5t183 274.5t274.5 183.5t334.5 68.5t334.5 -68.5t274.5 -183.5t183 -274.5t68 -334.5q0 -140 -43.5 -271.5t-123 -237t-185 -185t-237 -123t-271.5 -43.5t-271.5 43.5t-237 123t-185 185t-123 237t-43.5 271.5zM410 430h59l23 59h100l22 -59h60 l-109 295h-43zM508 537l33 104l37 -104h-70zM698 571q0 -61 40.5 -105t101.5 -44q28 0 65 16v68q-28 -31 -65 -31t-60.5 29.5t-23.5 66.5q0 41 23.5 71t62.5 30q35 0 63 -31v68q-32 16 -65 16q-62 0 -102 -45.5t-40 -108.5zM954 571q0 -61 40.5 -105t101.5 -44q28 0 65 16 v68q-28 -31 -65 -31t-60.5 29.5t-23.5 66.5q0 41 23.5 71t62.5 30q35 0 63 -31v68q-32 16 -65 16q-62 0 -102 -45.5t-40 -108.5zM1227 430h55v127h82v47h-82v64h88v49h-143v-287z" />
<glyph unicode="4" horiz-adv-x="1560" d="M121 -2v1436l1438 -719z" />
<glyph unicode="5" horiz-adv-x="1671" d="M121 2v1430h536v-1430h-536zM1014 2v1430h536v-1430h-536z" />
<glyph unicode="6" horiz-adv-x="1673" d="M121 4v1430h1431v-1430h-1431z" />
<glyph unicode="7" horiz-adv-x="1888" d="M121 233v994l745 -373v373l994 -498l-994 -496v371z" />
<glyph unicode="8" horiz-adv-x="1888" d="M29 729l995 496v-373l743 373v-994l-743 373v-373z" />
<glyph unicode="9" d="M82 573q0 175 68 334.5t183 274.5t274.5 183.5t334.5 68.5t334.5 -68.5t274.5 -183.5t183 -274.5t68 -334.5q0 -140 -43.5 -271.5t-123 -237t-185 -185t-237 -123t-271.5 -43.5t-271.5 43.5t-237 123t-185 185t-123 237t-43.5 271.5zM610 131l883 442l-883 443v-885z" />
<glyph unicode=":" horiz-adv-x="1640" d="M61 -326v1516h183v94q0 71 41 110.5t114 39.5q74 0 116 -40t42 -110v-94h107v94q0 70 41.5 110t115.5 40t116 -40t42 -110v-94h106v94q0 71 41.5 110.5t116.5 39.5q73 0 114.5 -39.5t41.5 -110.5v-94h180v-1516h-1518zM188 -199h1264v1053h-1264v-1053zM328 1032 q0 -35 16.5 -50t54.5 -15q40 0 57 15t17 50v252q0 35 -17 50.5t-57 15.5q-38 0 -54.5 -15.5t-16.5 -50.5v-252zM350 288q0 16 10 27l95 95q12 10 27.5 10t25.5 -10l154 -154q10 -10 26 -10t27 10l420 422q11 10 27 10t26 -10l94 -94q10 -10 10 -27t-10 -27l-508 -510 q-30 -26 -65 -26h-43q-15 0 -35.5 8t-30.5 18l-240 242q-10 10 -10 26zM748 1032q0 -35 17 -50t56 -15t56.5 15t17.5 50v252q0 35 -17.5 50.5t-56.5 15.5q-38 0 -55.5 -15.5t-17.5 -50.5v-252zM1169 1032q0 -35 17 -50t57 -15q38 0 55 15t17 50v252q0 35 -17 50.5t-55 15.5 q-40 0 -57 -15.5t-17 -50.5v-252z" />
<glyph unicode=";" horiz-adv-x="1816" d="M29 129v229h202q54 0 121 45q60 38 162 140q7 7 148.5 156.5t220.5 215.5q165 132 311 134h180v188l359 -301l-359 -301v184h-182q-48 0 -115 -45q-71 -48 -159 -139q-39 -39 -112 -117.5t-136.5 -143t-122.5 -112.5q-163 -131 -316 -133h-202zM29 819v230h207 q74 -2 149 -34t123 -69t104 -90q-58 -62 -86 -90l-32 -36t-37 -40q-31 28 -56 47q-101 82 -165 82h-207zM817 319q17 18 47 50.5t43 46.5q10 11 32.5 33.5t33.5 35.5q34 -30 53 -45q108 -85 172 -82h176v193l359 -303l-359 -299v180h-176q-39 0 -77.5 7.5t-73.5 23t-65 32 t-61.5 41t-53.5 42.5t-50 44z" />
<glyph unicode="&#x3c;" horiz-adv-x="808" d="M6 383v457h230l454 456v-1368l-454 455h-230z" />
<glyph unicode="=" horiz-adv-x="1939" d="M123 143v906h1583v-224l129 -49v-360l-129 -51v-222h-1583zM274 295h1282v602h-1282v-602zM373 393v406h391l455 -406h-846z" />
<glyph unicode="&#x3e;" horiz-adv-x="1820" d="M29 379v457h229l455 456v-1368l-455 455h-229zM819 463q72 59 72 147q0 89 -72 148v4l70 135q70 -47 111.5 -122.5t41.5 -164.5q0 -88 -41 -163t-112 -121zM977 154q121 70 192.5 191t71.5 265t-71.5 265.5t-192.5 191.5v4l67 133q158 -89 253.5 -248t95.5 -346t-94 -345 t-252 -247zM1133 1374l69 137q242 -134 386.5 -374.5t144.5 -526.5t-144.5 -526t-386.5 -373l-67 135q203 115 324.5 318.5t121.5 445.5t-122 446t-326 318z" />
<glyph unicode="?" horiz-adv-x="1888" d="M82 575q0 175 68.5 334.5t184 275.5t275 184.5t334.5 68.5q176 0 335.5 -68.5t275 -184.5t183.5 -275.5t68 -334.5t-68 -334.5t-183.5 -275t-275 -184t-335.5 -68.5q-175 0 -334.5 68.5t-275 184t-184 275t-68.5 334.5zM627 1006l94 -179l20 17q71 47 133 55q14 4 44 4 q60 0 77 -20q23 -23 23 -64q0 -26 -14 -51q-19 -25 -50.5 -54t-62 -58.5t-49.5 -57.5q-51 -86 -51 -178q0 -8 1 -24.5t1 -24.5l2 -23h202v25q0 50 15 81.5t45 65.5q16 16 60.5 53t64.5 60q71 89 71 213q0 122 -85 191t-220 69q-173 0 -303 -88zM766 156q-3 -58 36 -94.5 t99 -36.5q62 0 100.5 36t38.5 95q0 38 -18 68t-49.5 46.5t-71.5 16.5q-59 0 -98.5 -37t-36.5 -94z" />
<glyph unicode="@" horiz-adv-x="1040" d="M-264 164q-6 36 10 72q24 62 111 114q124 78 336 115q7 -17 22.5 -52t22.5 -53q-127 -28 -203 -88q-50 -35 -60 -75q-1 -3 -1.5 -5.5t0 -4.5t2 -5t2 -5t3 -5t3.5 -4.5t4 -5t4 -4.5q80 -94 309 -133q193 -31 373 -11q216 23 327 103l8 7q8 6 9.5 7t8 6.5t9 8.5t7 7.5 t7.5 9t5 9.5q12 21 -21 59q-68 87 -241 125q6 15 21.5 51t23.5 56q55 -10 131 -31q211 -64 291 -162q30 -37 34.5 -82t-8.5 -96q-7 -50 -43.5 -100.5t-81.5 -79.5q-208 -132 -563 -143q-368 -14 -631 98q-70 31 -132.5 87t-84.5 120q-3 10 -5.5 22.5t-3.5 22t-2.5 23.5 t-2.5 22zM145 1075q0 150 106.5 257.5t258.5 107.5h12q150 0 257.5 -107.5t107.5 -257.5q0 -56 -38 -176.5t-92.5 -253t-109.5 -257t-93 -205.5l-38 -81q-15 31 -40 84.5t-89 198t-113 265t-89 245t-40 180.5zM348 1108q0 -69 48.5 -118.5t117.5 -49.5t118.5 49.5 t49.5 118.5t-49.5 117.5t-118.5 48.5t-117.5 -48.5t-48.5 -117.5z" />
<glyph unicode="A" horiz-adv-x="1828" d="M58 966q0 110 77 187l203 203q78 76 187.5 76t187.5 -76l295 -295q72 -73 76 -177q0 -5 1 -10q0 -98 -63 -172l-143 142q7 15 7 30q0 25 -20 48l-295 295q-19 19 -46 19t-46 -19l-203 -203q-20 -20 -20 -47t20 -47l295 -295q21 -21 44 -21q14 0 30 8l143 -143 q-73 -62 -168 -62q-8 1 -14 1q-104 4 -176 77l-295 295q-77 76 -77 186zM510 881.5q0 41.5 29 70.5t69.5 29t69.5 -29l604 -604q29 -29 29 -70t-29 -69q-29 -29 -69.5 -29t-69.5 29l-604 602q-29 29 -29 70.5zM745 270v11q0 96 62 170l141 -144q-6 -15 -6 -28q0 -25 21 -46 l294 -294q19 -20 46.5 -20t46.5 20l202 202q20 19 20 46t-20 46l-295 297q-19 19 -43 19q-15 0 -32 -8l-142 143q74 63 172 62h10q104 -4 177 -76l295 -295q76 -78 76 -187.5t-76 -187.5l-203 -203q-77 -77 -187 -77t-186 77l-297 297q-72 72 -76 176z" />
<glyph unicode="B" horiz-adv-x="1804" d="M37 565q11 -5 30 -13t78 -24.5t119 -23.5q30 -4 65.5 -4t77.5 4q84 7 160 35q-116 48 -183 162q-38 66 -38 108q0 6 1 11q5 35 41 10q8 -6 18 -15q91 -87 338 -87q45 0 96 3q16 18 43 53v11q0 137 96.5 233t232.5 96q131 0 226 -88.5t104 -218.5l209 -100l-248 -80 q-27 -53 -86 -102q-19 -47 -45.5 -92t-79 -101.5t-118 -97t-167 -69t-221.5 -28.5q-91 0 -174.5 14.5t-148 38.5t-122.5 55.5t-100 66t-77.5 69t-58 66t-38.5 55.5t-23 38zM1190 866q0 -38 27 -65t65 -27q40 0 67 27t27 65q0 40 -27 67.5t-67 27.5q-38 0 -65 -27.5 t-27 -67.5z" />
<glyph unicode="C" horiz-adv-x="1869" d="M74 348q0 92 46 171t124 124q-13 37 -13 72q0 97 69.5 166t166.5 69q78 0 145 -51q63 131 186 211t273 80q212 0 361 -149t149 -361q0 -21 -2 -31q93 -37 151 -121.5t58 -189.5q0 -140 -99 -239t-239 -99q-3 0 -9 1t-9 1h-1018q-141 2 -240.5 103t-99.5 243z" />
<glyph unicode="D" horiz-adv-x="1878" d="M82 571q0 174 68 333t183 274.5t274 183.5t333 68t332.5 -68t273 -183.5t182.5 -274.5t68 -333t-68 -332.5t-182.5 -273t-273 -182.5t-332.5 -68t-333 68t-274 182.5t-183 273t-68 332.5zM462 236.5q0 -33.5 23 -56.5l64 -63q23 -23 56.5 -23t56.5 23l223 223 q23 23 56 23t58 -23l222 -223q23 -23 56 -23t58 23l64 63q23 23 23 56.5t-23 58.5l-223 221q-23 25 -23 57.5t23 57.5l223 221q23 25 23 58.5t-23 56.5l-64 63q-25 23 -58 23t-56 -23l-222 -223q-25 -23 -58 -23t-56 23l-223 223q-23 23 -56.5 23t-56.5 -23l-64 -63 q-23 -23 -23 -56.5t23 -58.5l224 -221q23 -25 23 -57.5t-23 -57.5l-224 -221q-23 -25 -23 -58.5z" />
<glyph unicode="E" horiz-adv-x="1832" d="M61 606v19q8 10 23.5 26.5t65.5 64.5t103 91.5t133 97t159.5 91.5t179 64.5t193.5 26.5t192.5 -25.5t180 -67t158 -91t134 -99t101 -91t66.5 -67.5l22 -25v-17q-8 -10 -23.5 -26.5t-65.5 -65t-103 -92.5t-133 -97.5t-159.5 -92t-179 -65t-193.5 -26.5q-74 0 -151 16 t-144 43t-132 62t-119.5 73.5t-103.5 77.5t-85.5 74t-63.5 62t-41 43zM631 608q0 -118 82.5 -201t199.5 -83q119 0 202 83t83 201q0 117 -83.5 200t-201.5 83q-117 0 -199.5 -83t-82.5 -200zM784 608q0 54 37.5 92.5t91.5 38.5t92.5 -38.5t38.5 -92.5t-38.5 -91.5 t-92.5 -37.5t-91.5 37.5t-37.5 91.5z" />
<glyph unicode="F" horiz-adv-x="1441" d="M109 -242v1323l350 351v2h864v-1676h-1214zM248 -102h936v1396h-584v-352h-352v-1044z" />
<glyph unicode="G" d="M82 567q0 175 68 334t182.5 274.5t273.5 183.5t334 68q140 0 271.5 -43.5t237 -123t185 -185t123 -237t43.5 -271.5q0 -174 -68 -333t-183 -274t-274.5 -183t-334.5 -68t-334 68t-273.5 183t-182.5 274t-68 333zM297 614h330q3 111 16 224h-287q-50 -103 -59 -224z M299 518q9 -119 59 -225h287q-15 102 -18 225h-328zM412 936h247q24 127 70 242q-195 -68 -317 -242zM414 197q122 -171 315 -238q-46 116 -70 238h-245zM723 518q3 -123 18 -225h400q15 102 18 225h-436zM723 614h436q-3 125 -18 224h-400q-15 -99 -18 -224zM758 197 q31 -149 88 -267q46 -6 94 -6q50 0 96 6q57 118 88 267h-366zM758 936h366q-31 153 -88 270q-46 6 -96 6q-48 0 -94 -6q-58 -119 -88 -270zM1153 -39q193 68 313 236h-245q-21 -121 -68 -236zM1153 1176q46 -114 68 -240h247q-121 172 -315 240zM1237 293h285q52 111 61 225 h-330q0 -116 -16 -225zM1237 838q16 -109 16 -224h330q-9 118 -57 224h-289z" />
<glyph unicode="H" horiz-adv-x="1771" d="M43 571l844 842l842 -842h-324v-774h-363v482h-311v-482h-375v774h-313z" />
<glyph unicode="I" horiz-adv-x="1908" d="M674 -199v1510h565v-1510l-283 303z" />
<glyph unicode="J" horiz-adv-x="1765" d="M37 246q0 193 151 344q155 155 412 155q77 0 133 -10l254 -33q69 -14 135 -14q83 0 149 22.5t105 61.5q66 66 66 156q-2 43 -19 82t-43.5 68t-60.5 48q-47 27 -105 27h-8q-86 0 -149 -63q-83 -85 -83 -226q0 -13 1 -26l-225 28q-5 1 -14 2t-13 2q-1 18 -1 35 q0 108 33 192q38 97 124 185q153 150 335 150h7h4q190 0 342 -152q66 -66 108.5 -156t42.5 -186q0 -98 -41 -187.5t-106 -154.5q-160 -160 -410 -160q-63 0 -143 13l-252 32q-70 15 -133 15q-108 0 -183.5 -36t-113.5 -104q-17 -33 -21 -71q-1 -13 -1 -25q0 -25 5 -48 q8 -34 24 -64t38 -52q66 -63 154 -69h6q90 0 155 65q85 85 85 229q0 12 -1 25l224 -29q4 -1 12 -2t12 -2v-26q0 -117 -32 -204q-37 -96 -122 -181q-152 -152 -344 -152q-142 0 -266 86q-39 29 -78 68q-149 146 -149 342z" />
<glyph unicode="K" horiz-adv-x="1779" d="M36 1076l1 22q3 37 33 67l256 256q10 10 21 10q3 -1 5 -1q14 -2 19 -17l209 -389q6 -15 2.5 -34.5t-15.5 -31.5l-94 -94q-12 -11 -20.5 -30.5t-8.5 -36.5q0 -6 1.5 -17t15.5 -49.5t39 -82t79 -113t128 -142.5q73 -74 141.5 -128t114 -78.5t80.5 -38.5t51 -16l16 -1 q17 0 37 9t31 20l110 110q12 12 31.5 15.5t32.5 -4.5l377 -222q16 -9 16 -25q0 -11 -10 -22l-256 -256q-29 -29 -68 -32q-9 -2 -23 -2h-2q-16 0 -62 5q-50 5 -102.5 18t-135.5 46.5t-167 82.5t-192 133.5t-215 191.5t-191.5 214.5t-133 193.5t-82.5 165.5t-47 137.5 q-12 58 -18 101q-4 32 -5 52q0 7 1 13z" />
<glyph unicode="L" d="M420 154v116h1032v-116h-1032zM420 444v117h1032v-117h-1032zM420 735v117h1032v-117h-1032zM420 1026v117h1032v-117h-1032z" />
<glyph unicode="M" horiz-adv-x="1949" d="M117 98v953q0 15 6 30l559 -479l-559 -536q-6 15 -6 32zM190 1149q20 4 29 4h1512q8 0 28 -4l-563 -481q-41 -35 -221 -181q-182 147 -221 181zM193 0l565 543l217 -178l219 178l563 -543q-16 -4 -26 -4h-1512q-10 0 -26 4zM1268 602l559 479q6 -15 6 -30v-953 q0 -17 -6 -32z" />
<glyph unicode="N" horiz-adv-x="1931" d="M221 -16v1456h1458v-1456h-1458zM301 66h1298v1294h-1298v-1294zM465 227v590h250v-590h-250zM465 952v248h975v-248h-975zM868 227v590h572v-590h-572z" />
<glyph unicode="O" horiz-adv-x="1904" d="M121 606q0 168 65.5 322t176 265t264 177t321.5 66q169 0 323 -66t265 -177t176.5 -265t65.5 -322q0 -234 -120.5 -429.5t-320.5 -301.5q31 121 31 168q0 4 -1 12.5t-1 12.5q124 95 194 235.5t70 302.5q0 111 -34.5 214.5t-97.5 187.5t-146.5 147.5t-188 98t-215.5 34.5 q-138 0 -264 -54t-217 -145.5t-145 -218t-54 -264.5q0 -163 72 -305.5t197 -237.5v-20q0 -46 28 -172q-201 106 -322.5 302.5t-121.5 432.5z" />
<glyph unicode="P" horiz-adv-x="1861" d="M53 948l1260 486l160 -418h292v-1014h-1349v2zM199 885l217 -568v652zM528 115h1125v788h-1125v-788zM541 1016h811l-105 272zM666 209l211 229l135 -86l252 363l77 -146l91 29l118 -389h-884zM670 670q0 44 31 75t75 31t75.5 -31t31.5 -75t-31.5 -75.5t-75.5 -31.5 t-75 31.5t-31 75.5z" />
<glyph unicode="Q" horiz-adv-x="1728" d="M68 473q0 174 71.5 329.5t196.5 266.5q38 32 87 32h8q54 -3 89 -44q33 -36 33 -85q0 -4 -1 -9q-3 -54 -44 -89q-85 -75 -132.5 -179t-47.5 -222q0 -146 71.5 -270t195 -196.5t269.5 -72.5t270 72.5t196 196.5t73 270q0 118 -47.5 221t-132.5 178q-40 37 -43 91q-1 5 -1 9 q0 49 33 85q35 40 89 43h7q50 0 87 -33q125 -111 195.5 -265.5t70.5 -328.5q0 -162 -63 -310t-170 -255t-254.5 -170.5t-309.5 -63.5t-309.5 63.5t-254 170.5t-169.5 255t-63 310zM737 471v834q0 54 37.5 92.5t91.5 38.5t92.5 -38.5t38.5 -92.5v-834q0 -54 -38.5 -92.5 t-92.5 -38.5t-91.5 38.5t-37.5 92.5z" />
<glyph unicode="R" horiz-adv-x="1861" d="M84 0v1071h670q-4 -2 -13.5 -6t-13.5 -6q-177 -79 -289 -203h-141v-641h1071v178l213 144v-537h-1497zM416 422q0 88 25.5 164.5t68 132.5t98 102.5t116.5 77.5t122.5 55t117 37t98 21.5t68.5 11.5l25 2v258l641 -430l-641 -432v280q-186 0 -289 -14q-73 -8 -137 -27.5 t-108.5 -43.5t-81 -51t-58.5 -52.5t-37.5 -46t-21.5 -33.5z" />
<glyph unicode="S" horiz-adv-x="1746" d="M37 748q0 28 15 47t38 27.5t51 8.5h471q10 0 23.5 10t13.5 19l137 490q5 16 10.5 28.5t15 25t25 20t35.5 8.5q20 -1 34.5 -7.5t24.5 -19t15 -22t12 -26.5q2 -5 3 -7l135 -490q0 -9 13.5 -19t23.5 -10h471q42 0 76 -22q29 -19 29 -51q0 -5 -1 -10q0 -10 -1.5 -19t-5 -17 t-6 -12.5t-9.5 -11.5t-9.5 -9t-11 -9t-10.5 -8l-377 -248q-3 -1 -7 -7t-7 -14t-2 -14v-8l165 -486q9 -24 9 -47q0 -29 -15 -51q-10 -15 -27.5 -24t-33.5 -9h-2q-9 0 -17.5 2t-14 3.5t-12.5 5.5t-10 6l-10.5 7t-9.5 7l-389 317q-7 7 -21 7q-15 0 -18 -7l-371 -315 q-1 -1 -5.5 -4.5t-5.5 -4t-5 -3.5l-6 -4.5t-6.5 -3.5t-7.5 -3t-7.5 -3t-8.5 -2.5t-9.5 -1.5t-11.5 -1q-16 -2 -35.5 7.5t-28.5 23.5q-16 23 -16 53q0 15 8 43l147 484v8q1 10 -5 22.5t-11 14.5l-379 250q-17 11 -27 19.5t-19 26.5t-9 40z" />
<glyph unicode="T" horiz-adv-x="1841" d="M-27 113v77q0 5 3 14.5t27 33t67 41.5q11 5 48.5 27t78.5 39.5t86 25.5q-33 36 -66 123q-8 23 -8 90q0 9 -1.5 29.5t-1.5 37t3 27.5q29 100 145 100q117 0 146 -100q3 -11 3.5 -27t-0.5 -38.5t-1 -28.5q0 -66 -10 -90q-25 -67 -54 -109q-39 -24 -65.5 -50.5t-37 -49.5 t-14.5 -37.5t-4 -26.5v-108h-344zM399 113v106q0 3 1 7.5t8 18.5t19 28t39 33t64 36q15 7 67 36.5t108.5 53.5t117.5 35q-41 45 -88 168q-3 8 -5 15.5t-3.5 14t-2.5 15.5t-2 14t-1 16.5v15.5v17.5v18.5q0 10 -1.5 39.5t-1 51t4.5 36.5q40 139 199 139q77 0 127.5 -30.5 t72.5 -108.5q4 -15 4.5 -36.5t-1 -51t-1.5 -39.5v-18.5v-17.5v-15.5t-1 -16.5t-2 -14t-2.5 -15.5t-3.5 -14t-5 -15.5q-46 -119 -90 -168q62 -11 118 -34t111.5 -54t67.5 -37q37 -16 64 -34.5t39 -33.5t19 -28t8 -20l1 -7v-106h-1049zM1344 650q0 16 4 28q25 100 143 100 q56 0 92.5 -22t52.5 -78q3 -11 3.5 -27t-0.5 -38.5t-1 -28.5q0 -66 -10 -90q-37 -95 -65 -123q45 -8 86.5 -25.5t79.5 -39.5t49 -27q43 -18 67 -40.5t27 -35.5l2 -13v-77h-344v108q0 12 -4 27t-15 38.5t-38 50t-66 50.5q-22 30 -51 107q-10 24 -10 90q0 6 -2 28q-1 16 -1 30 q1 4 1 8z" />
<glyph unicode="U" horiz-adv-x="1830" d="M133 -51v168q0 4 1.5 11.5t12.5 29.5t30 43.5t61 51t98 54.5q15 6 98 49t160 69.5t172 39.5q-16 12 -30.5 30t-25 34.5t-24 47.5t-21 50.5t-24 62.5t-25.5 66q0 1 -1 4t-1 4q-6 -2 -14 -2t-20 4q-18 11 -29.5 58t-13.5 89q0 58 30 58h4v16q-1 17 -3 65q-2 40 -2 71v13 q0 36 7 60q13 42 20.5 63.5t22 51.5t31.5 43.5t39 13.5q67 80 229 80q22 0 47 -2l25 -2q32 0 86 -23.5t94 -66.5q15 -16 24.5 -33.5t13 -30.5t10.5 -42t14 -52q7 -24 7 -61v-13q0 -32 -2 -72q-2 -48 -3 -63v-16h4q29 0 29 -51v-7q0 -38 -12 -87t-29 -60q-12 -4 -21 -4 q-8 0 -14 2q0 -4 -2 -6q-9 -22 -29.5 -77.5t-29 -75t-25 -54t-32 -53.5t-34.5 -33q96 -12 171 -37t166 -72t95 -49q57 -25 99 -54t61.5 -52t30.5 -42.5t13 -30.5l1 -11v-168h-1540z" />
<glyph unicode="V" horiz-adv-x="1943" d="M121 178v887q0 38 27 65t65 27h1044q38 0 65.5 -27t27.5 -65v-213l481 227v-919l-481 227v-209q0 -38 -27.5 -65t-65.5 -27h-1044q-38 0 -65 27t-27 65z" />
<glyph unicode="W" horiz-adv-x="1953" d="M119 111v1009q0 104 74 178t178 74h1007q35 0 49 -4l-182 -184h-874q-26 0 -45 -19t-19 -45v-1009q0 -26 19 -45t45 -19h1007q26 0 45 19t19 45v370l188 191v-561q0 -104 -74 -178t-178 -74h-1007q-104 0 -178 74t-74 178zM754 244l129 399l725 725l270 -270l-725 -725z M850 340l270 86l-182 182z" />
<glyph unicode="X" horiz-adv-x="1886" d="M84 51v1120q0 20 14 34t33 14h1620q20 0 34.5 -14t14.5 -34v-1120q0 -20 -14.5 -33.5t-34.5 -13.5h-1620q-19 0 -33 13.5t-14 33.5zM186 170q0 -9 8 -16t17 -7h106q10 0 17.5 7t7.5 16v109q0 9 -7.5 15.5t-17.5 6.5h-106q-9 0 -17 -6.5t-8 -15.5v-109zM186 432 q0 -9 8 -15.5t17 -6.5h106q10 0 17.5 6.5t7.5 15.5v109q0 9 -7.5 15.5t-17.5 6.5h-106q-9 0 -17 -6.5t-8 -15.5v-109zM186 682q0 -9 8 -16t17 -7h106q10 0 17.5 7t7.5 16v109q0 9 -7.5 15.5t-17.5 6.5h-106q-9 0 -17 -6.5t-8 -15.5v-109zM186 944q0 -9 8 -15.5t17 -6.5h106 q10 0 17.5 6.5t7.5 15.5v109q0 9 -7.5 15.5t-17.5 6.5h-106q-9 0 -17 -6.5t-8 -15.5v-109zM455 164q0 -20 13.5 -34.5t33.5 -14.5h880q20 0 34 14.5t14 34.5v897q0 20 -14 33.5t-34 13.5h-880q-20 0 -33.5 -13.5t-13.5 -33.5v-897zM752 391v440l440 -221zM1542 170 q0 -9 7.5 -16t17.5 -7h106q9 0 17 7t8 16v109q0 9 -8 15.5t-17 6.5h-106q-10 0 -17.5 -6.5t-7.5 -15.5v-109zM1542 432q0 -9 7.5 -15.5t17.5 -6.5h106q9 0 17 6.5t8 15.5v109q0 9 -8 15.5t-17 6.5h-106q-10 0 -17.5 -6.5t-7.5 -15.5v-109zM1542 682q0 -9 7.5 -16t17.5 -7 h106q9 0 17 7t8 16v109q0 9 -8 15.5t-17 6.5h-106q-10 0 -17.5 -6.5t-7.5 -15.5v-109zM1542 944q0 -9 7.5 -15.5t17.5 -6.5h106q9 0 17 6.5t8 15.5v109q0 9 -8 15.5t-17 6.5h-106q-10 0 -17.5 -6.5t-7.5 -15.5v-109z" />
<glyph unicode="Y" horiz-adv-x="1763" d="M33 612v17q8 10 23 26.5t65 64.5t102.5 91.5t132.5 96.5t159 91.5t177.5 64.5t192.5 26t192 -25.5t179 -66.5t157 -90.5t133 -98.5t100.5 -90t65.5 -67l23 -25v-19q-8 -10 -23 -26.5t-65 -64.5t-102.5 -91.5t-132.5 -96.5t-159 -91.5t-177.5 -64.5t-192.5 -26t-192 25.5 t-179 66.5t-157 90.5t-133 99.5t-100.5 91t-65.5 66zM600 612q0 -117 82.5 -199.5t200.5 -82.5q117 0 198.5 82.5t81.5 199.5t-81.5 200t-198.5 83q-118 0 -200.5 -83t-82.5 -200zM752 614q0 54 38.5 91.5t92.5 37.5q53 0 91 -37.5t38 -91.5t-38 -91.5t-91 -37.5 q-54 0 -92.5 37.5t-38.5 91.5z" />
<glyph unicode="Z" horiz-adv-x="1837" d="M72 471q0 -29 20 -49.5t51 -20.5h142q29 0 49 20.5t20 49.5q0 30 -20 51t-49 21h-142q-30 0 -50.5 -21t-20.5 -51zM300 1022q0 -29 22 -49l98 -101q22 -22 51 -22t49 22q22 20 22 49.5t-22 51.5l-100 100q-20 20 -49 20t-49 -20q-22 -22 -22 -51zM496 117q0 -29 21 -49.5 t50 -20.5h709q29 0 50.5 20.5t21.5 49.5t-21.5 50t-50.5 21h-709q-29 0 -50 -21t-21 -50zM496 471q0 -68 26 -141h154q-37 61 -37 141q0 118 83 201.5t200 83.5t199.5 -83.5t82.5 -201.5q0 -80 -37 -141h154q27 76 27 141q0 177 -124.5 301.5t-301.5 124.5t-301.5 -124.5 t-124.5 -301.5zM850 1110q0 -30 21 -51t51 -21t50.5 21t20.5 51v141q0 29 -21 49.5t-50 20.5t-50.5 -20.5t-21.5 -49.5v-141zM1301 921.5q0 -29.5 22 -49.5q20 -22 49 -22t51 22l101 101q20 20 20 49t-20 51q-22 20 -51.5 20t-49.5 -20l-100 -100q-22 -22 -22 -51.5z M1489 471q0 -29 20.5 -49.5t49.5 -20.5h141q31 0 51.5 20.5t20.5 49.5q0 30 -21 51t-51 21h-141q-29 0 -49.5 -21.5t-20.5 -50.5z" />
<glyph unicode="[" horiz-adv-x="1763" d="M37 616l874 758v-569h838v-379h-838v-567z" />
<glyph unicode="\" horiz-adv-x="1748" d="M123 -324v1514h182v94q0 71 41.5 110.5t114.5 39.5q74 0 115.5 -40t41.5 -110v-94h107v94q0 70 42 110t116 40q73 0 114 -39.5t41 -110.5v-94h107v94q0 70 42 110t116 40t115.5 -40t41.5 -110v-94h178v-1514h-1515zM250 -199h1261v1053h-1261v-1053zM389 1032 q0 -35 17 -50t55 -15q40 0 57 15t17 50v252q0 35 -17 50.5t-57 15.5q-38 0 -55 -15.5t-17 -50.5v-252zM809 1032q0 -35 17 -50t57 -15q38 0 54.5 15t16.5 50v252q0 35 -16.5 50.5t-54.5 15.5q-40 0 -57 -15.5t-17 -50.5v-252zM1231 1032q0 -35 17 -50t55 -15q40 0 56.5 15 t16.5 50v252q0 35 -16.5 50.5t-56.5 15.5q-38 0 -55 -15.5t-17 -50.5v-252z" />
<glyph unicode="]" horiz-adv-x="1763" d="M14 426v379h836v569l876 -758l-876 -757v567h-836z" />
<glyph unicode="^" horiz-adv-x="1587" d="M123 -326v1674q0 35 25.5 60.5t62.5 25.5q35 0 60.5 -25.5t25.5 -60.5v-1674h-174zM397 438v817q20 6 54.5 15t127.5 32t175.5 36.5t167.5 23.5t135.5 -1t50.5 -44q0 -6 -4.5 -29.5t-7.5 -47t-3 -47.5t11 -37.5t33 -10.5q62 7 161 13.5t168 9.5l68 3q5 -11 11 -31 t6 -90.5t-23 -148.5t-25.5 -198t6.5 -201l9 -80q-9 -2 -25 -5t-62.5 -11t-90 -13.5t-99 -11.5t-100 -4.5t-81.5 7t-54 22.5t-9 43q31 97 -93.5 94.5t-377.5 -99.5q-34 -13 -66 -14.5t-48 3.5z" />
<glyph unicode="_" horiz-adv-x="1679" d="M121 406v407h1438v-407h-1438z" />
<glyph unicode="`" horiz-adv-x="1916" d="M121 -217v567l194 -196l312 311l178 -178l-311 -312l194 -192h-567zM121 891v567h567l-194 -194l311 -312l-178 -178l-312 313zM1114 287l178 178l312 -311l194 194v-565h-567l194 194zM1114 952l311 312l-194 194h565v-567l-192 194l-312 -311z" />
<glyph unicode="a" horiz-adv-x="1658" d="M31 193q0 43 30.5 72.5t73.5 29.5t73 -29.5t30 -72.5v-17q19 -16 69.5 -45t77.5 -47q98 -64 295 -68l65 310q9 200 15 393h-279l-106 24q-27 -34 -68 -34q-35 0 -59.5 24t-24.5 58t24.5 57.5t59.5 23.5q46 0 68 -36h389q4 146 6 196q-65 20 -106 74.5t-41 124.5 q0 86 59.5 146.5t144.5 60.5q86 0 146.5 -60.5t60.5 -146.5q0 -68 -40.5 -122t-104.5 -75q1 -15 3.5 -82.5t4.5 -115.5h387q22 36 68 36q35 0 59.5 -23.5t24.5 -57.5t-24.5 -58t-59.5 -24q-45 0 -66 34l-108 -24h-277l12 -393l68 -316q26 -1 50 -1q48 0 87 5q59 8 109 39 q102 61 196 127q-2 4 -2 13q0 42 31 72t74 30t72.5 -29.5t29.5 -72.5q0 -28 -13.5 -52t-37 -38.5t-51.5 -14.5q-4 0 -12.5 1t-12.5 1q-245 -207 -483 -276q-152 -90 -184 -90q-8 0 -22 4.5t-31 12t-34.5 16.5t-36 19t-31.5 17.5t-25.5 14.5t-14.5 8q-241 71 -481 274 q-4 0 -11.5 -1t-11.5 -1q-43 0 -73.5 31t-30.5 74zM719 1231q0 -45 31.5 -77t76.5 -32q46 0 78.5 31.5t32.5 77.5q0 44 -32.5 76t-78.5 32q-44 0 -76 -32t-32 -76z" />
<glyph unicode="b" horiz-adv-x="1882" d="M20 18v1174q88 0 168 -6v227q132 0 244 -12t186.5 -30t134 -42.5t92 -46t55.5 -44t29.5 -33.5t8.5 -17q3 7 9.5 17t30 33.5t55.5 44.5t92 45.5t134.5 42.5t186.5 30t244 12v-227q80 6 168 6v-1174q-21 2 -56.5 5t-137.5 5q-27 1 -53 1q-73 -1 -139 -5q-90 -6 -196.5 -27 t-177.5 -58q-13 -7 -42 -31q-28 -24 -57 -38q-27 -14 -57 -13h-4q-31 0 -59.5 14.5t-57 37.5t-41.5 30q-71 37 -175 59q-105 22 -203 26q-89 4 -168 5q-9 -1 -18 -1q-88 0 -142 -5zM270 215h9q393 0 602 -119v1012l-19 47q-6 9 -15 19.5t-53 39t-102.5 50t-170.5 41.5 t-251 24v-1114zM993 92q208 123 606 123h7v1114q-139 -4 -250.5 -24t-170 -41.5t-102 -50t-52.5 -39t-15 -19.5l-23 -55v-1008z" />
<glyph unicode="c" horiz-adv-x="1859" d="M72 348q0 93 45.5 171.5t122.5 125.5q-11 42 -11 70q0 97 69 165t167 68q79 0 141 -49q63 131 186 211t273 80q138 0 255 -68t185 -185t68 -255q0 -21 -2 -31q93 -39 150 -123t57 -188q0 -138 -98.5 -237t-237.5 -99h-424v332h217q25 0 31 13.5t-9 33.5l-296 354 q-17 20 -40 20t-40 -20l-297 -354q-17 -20 -10.5 -33.5t32.5 -13.5h217v-332h-413v2q-139 1 -238.5 101.5t-99.5 240.5z" />
<glyph unicode="d" horiz-adv-x="1880" d="M82 573q0 174 68 333t183 274.5t274 183.5t333 68q175 0 334 -68t273.5 -183.5t182.5 -274.5t68 -333q0 -175 -68 -334t-182.5 -273.5t-273.5 -182.5t-334 -68q-174 0 -333 68t-274 182.5t-183 273.5t-68 334zM297 573q0 -174 86.5 -322t234.5 -234.5t322 -86.5 q212 0 375 119l-897 899q-121 -169 -121 -375zM567 1098l897 -897q121 166 121 372q0 174 -86.5 322.5t-235 235t-323.5 86.5q-207 0 -373 -119z" />
<glyph unicode="e" horiz-adv-x="1138" d="M-285 346q0 92 46 171.5t124 125.5q-12 30 -12 70q0 97 69.5 166t166.5 69q83 0 143 -51q62 131 186.5 211t274.5 80q138 0 255.5 -68t186 -185t68.5 -255q0 -5 -1 -15.5t-1 -15.5q92 -39 149 -123.5t57 -187.5q0 -140 -98 -239t-237 -99h-187l109 131q34 41 42 91 q2 13 2 24q0 36 -16 69q-20 46 -62.5 71.5t-96.5 25.5h-76v192q0 85 -60 145t-145 60h-72q-84 0 -143 -60t-59 -145v-192h-76q-55 0 -97.5 -25.5t-64.5 -71.5q-15 -33 -15 -67q0 -12 2 -26q8 -48 42 -91l110 -131h-174q-141 3 -240.5 104t-99.5 242zM219 256q7 14 33 14h217 v334q0 25 18 43.5t43 18.5h72q26 0 44 -18.5t18 -43.5v-334h219q25 0 31 -14q2 -4 2 -8q0 -11 -11 -25l-299 -356q-18 -21 -39 -21q-20 0 -41 21l-297 356q-12 13 -12 24q0 5 2 9z" />
<glyph unicode="f" horiz-adv-x="1867" d="M115 -43q0 94 66.5 160.5t160.5 66.5t160.5 -66.5t66.5 -160.5q0 -95 -66.5 -161t-160.5 -66t-160.5 66t-66.5 161zM115 522v328q228 0 435.5 -88.5t358.5 -239t241 -358t91 -436.5h-328q-1 160 -61.5 304t-173.5 257t-258 173t-305 60zM115 1104v330q174 0 342.5 -35 t319.5 -99t289 -157.5t252.5 -208t208 -253t158 -289.5t100 -320.5t36.5 -343.5h-328q-1 187 -51 365.5t-139 329.5t-216.5 278t-278 215.5t-328.5 138t-365 49.5z" />
<glyph unicode="g" horiz-adv-x="1830" d="M59 2v72q0 2 0.5 5t5 12t12.5 18t26 21t42 22q11 5 44.5 25t71 36t77.5 23q-29 31 -59 110q-9 24 -9 82q0 6 -1 25.5t-0.5 34t3.5 24.5q22 90 129 90q106 0 131 -90q3 -11 3 -84q0 -58 -9 -82q-29 -70 -49 -98q-34 -21 -57.5 -44.5t-33.5 -44.5t-13.5 -35t-3.5 -24v-98 h-310zM442 2v96q0 2 0.5 6.5t7 17.5t18 25.5t36 29.5t57.5 32q12 6 59.5 33t98 48.5t106.5 31.5q-36 41 -80 151q-5 11 -7.5 21t-3.5 23t-1.5 21t0 25.5t0.5 24.5q0 9 -1.5 35.5t-1 46t4.5 32.5q34 125 178 125t181 -125q4 -13 4.5 -32.5t-1 -46t-1.5 -35.5q0 -81 -13 -115 q-44 -111 -82 -151q57 -10 107 -30.5t102 -49.5t60 -33q33 -14 57 -31t35.5 -30.5t18 -25t7.5 -18.5l1 -6v-96h-947zM1292 488q1 14 4 24q25 90 131 90q107 0 132 -90q2 -10 2 -25t-1 -33t-1 -26q0 -58 -9 -82q-30 -79 -59 -110q41 -7 78.5 -22.5t72 -35.5t44.5 -24 q38 -17 59.5 -37t24.5 -31l2 -12v-72h-310v98q-9 88 -112 150q-24 38 -45 96q-11 25 -11 82q0 6 -1 26q-1 12 -1 23v11z" />
<glyph unicode="h" horiz-adv-x="1855" d="M68 575q0 153 53 295q9 26 31.5 42t48.5 16q7 0 19.5 -3t15.5 -3q58 114 146.5 202.5t201.5 143.5q-6 25 -4 47.5t15.5 41t37.5 27.5q148 52 295 52q152 0 297 -54q35 -12 47 -44q7 -17 7 -36q0 -16 -5 -34q32 -16 63 -35t59.5 -40.5t54.5 -45.5t50 -50t45.5 -54 t40.5 -58.5t35 -62.5q4 1 11 2.5t13 2.5t11 1q26 0 48.5 -16t31.5 -42q51 -137 51 -295q0 -157 -51 -294q-6 -17 -18.5 -30.5t-29 -20.5t-34.5 -7q-14 0 -35 6q-55 -112 -144 -200.5t-202 -145.5q6 -25 4 -47.5t-15.5 -41t-37.5 -27.5q-148 -52 -295 -52q-149 0 -297 52 q-35 14 -47 46q-7 17 -7 36q0 16 5 34q-230 114 -348 346q-22 -6 -35 -6q-26 0 -48.5 16t-31.5 42q-53 142 -53 294zM154 575q0 -133 47 -266l338 84q-41 90 -41 182q0 95 43 183l-340 84q-47 -136 -47 -267zM584 319q33 -46 90 -90q22 43 71 43q24 0 37 -8q67 -33 148 -33 q78 0 145 33q13 8 37 8q49 0 72 -41q49 35 90 88q-24 15 -36 43q-5 13 -6 30q0 18 7 38q33 65 33 145q0 79 -33 146q-7 20 -7 38q0 16 6 29q12 29 36 43q-41 54 -90 89q-23 -41 -72 -41q-24 0 -37 8q-67 33 -147 33q-79 0 -146 -33q-13 -8 -37 -8q-23 0 -42 11.5t-29 29.5 q-49 -35 -90 -89q25 -14 36 -43q5 -13 5 -28q0 -18 -7 -39q-34 -69 -34 -146q0 -73 32 -145q10 -20 10 -38t-10 -36q-9 -24 -32 -37zM664 -152q124 -47 266 -47q140 0 264 47l-82 338q-84 -41 -182 -41t-185 41zM664 1303l81 -338q87 41 183 41q97 0 184 -41l82 338 q-124 47 -266 47q-140 0 -264 -47zM1317 393l338 -84q47 127 47 266q0 137 -45 267l-340 -84q41 -84 41 -183q0 -98 -41 -182z" />
<glyph unicode="i" d="M82 571q0 175 68.5 334.5t183.5 274.5t274.5 183.5t333.5 68.5q175 0 334.5 -68.5t274.5 -183.5t183 -274.5t68 -334.5q0 -140 -43.5 -271.5t-123 -237t-185 -185t-237 -123t-271.5 -43.5q-174 0 -333.5 68t-274.5 183t-183.5 274.5t-68.5 334.5zM707 627l32 -92l13 8 q22 20 61.5 47.5t50.5 32.5q0 -13 -6 -43l-88 -373q-12 -62 -12 -123q0 -94 73 -94q47 0 144 59.5t182 151.5l6 6q-8 17 -23 48t-18 38l-10 -8q-29 -28 -70.5 -57t-50.5 -31v10q0 14 6 41l95 385q12 53 12 117q0 86 -57 86q-51 0 -153 -62t-187 -147zM915 1028q0 -51 28 -83 t75 -32h2q59 0 99 42.5t40 99.5q0 48 -29.5 79t-76.5 31q-63 -1 -100.5 -44t-37.5 -93z" />
<glyph unicode="j" horiz-adv-x="1796" d="M112 616q9 74 44.5 143t95.5 118q57 47 139.5 72.5t136.5 27.5l54 2v248l446 -414l-446 -414v265q-90 -4 -152 -33t-89 -70.5t-34 -89.5q-3 -18 -3 -36q0 -28 8 -55q11 -42 34 -73q30 -40 87 -75t99 -50l41 -14q-124 11 -219 55t-148 106t-78 137q-18 57 -18 112 q0 19 2 38zM772 158l447 413v-264q90 4 152 33t88.5 70.5t33.5 89.5q3 18 3 36q0 28 -8 54q-11 43 -34 74q-30 40 -87 75t-99 49l-41 15q124 -11 219 -55t148 -106t78 -138q18 -56 18 -111q0 -19 -2 -38q-9 -74 -44.5 -143t-95.5 -118q-57 -47 -139.5 -72.5t-136.5 -27.5 l-53 -2v-248z" />
<glyph unicode="k" horiz-adv-x="1835" d="M63 819q0 116 35 202t96.5 134.5t134 71t158.5 22.5q61 0 128 -27t119 -65.5t95 -77t66 -65.5l23 -27q9 11 24.5 28.5t63.5 62.5t96 79.5t115.5 63t128.5 28.5q86 0 159 -22.5t134.5 -71t97 -134.5t35.5 -202q0 -64 -22 -131t-53 -117.5t-62.5 -92t-53.5 -63.5l-22 -22 l-641 -639l-642 639q-9 8 -23 23t-51 61.5t-65 94t-51 115.5t-23 132z" />
<glyph unicode="l" horiz-adv-x="1929" d="M115 139q0 55 39.5 95t95.5 40q57 0 97 -39.5t40 -95.5q0 -57 -40 -97t-97 -40q-56 0 -95.5 40t-39.5 97zM115 719q0 57 39.5 97t95.5 40q57 0 97 -40t40 -97q0 -56 -40 -95.5t-97 -39.5q-56 0 -95.5 40t-39.5 95zM115 1298q0 56 40 96t95 40q57 0 97 -40t40 -96 q0 -57 -40 -97t-97 -40q-56 0 -95.5 40t-39.5 97zM571 0v272h1239v-272h-1239zM571 582v272h1239v-272h-1239zM571 1161v273h1239v-273h-1239z" />
<glyph unicode="m" horiz-adv-x="1654" d="M37 -109q0 106 94 182.5t227 76.5q69 0 142 -27v1051h4q57 14 461 109t614 147v-1223q-1 -106 -95.5 -180t-226.5 -74q-133 0 -227 75.5t-94 182.5q0 106 94 182t227 76q71 0 144 -27v631l-721 -172v-1014q-2 -106 -96 -181t-226 -75q-133 0 -227 76.5t-94 183.5z" />
<glyph unicode="n" horiz-adv-x="1957" d="M197 -201v1577h1572v-1577h-1572zM328 -70h878l432 432v881h-1310v-1313zM518 227v105h555v-105h-555zM518 549v106h920v-106h-920zM518 872v107h920v-107h-920z" />
<glyph unicode="o" horiz-adv-x="1927" d="M225 -166v612h615v-612h-615zM225 713v612h615v-612h-615zM1104 -166v612h612v-612h-612zM1104 713v612h612v-612h-612z" />
<glyph unicode="p" horiz-adv-x="1751" d="M18 -283l150 465l942 942l313 -313l-942 -942zM332 184l53 -51l776 776l-51 54zM1217 1231l204 205l316 -314l-207 -204z" />
<glyph unicode="q" horiz-adv-x="1863" d="M61 586v485q0 105 74.5 179.5t179.5 74.5h863q104 0 178 -75t74 -179v-485q0 -106 -74 -180t-178 -74h-611q-102 -103 -206 -148t-183 -45q-59 0 -69 19q-3 7 6 14q103 78 135 168q-83 22 -136 90t-53 156zM498 131q62 38 114 88h566q152 0 259 107.5t107 259.5v481 q96 -9 162 -81.5t66 -170.5v-487q0 -87 -53 -154.5t-136 -89.5q30 -90 135 -168q19 -14 -9 -25q-23 -9 -54 -9q-41 0 -96 15q-157 41 -291 179h-613q-86 0 -157 55z" />
<glyph unicode="r" horiz-adv-x="1843" d="M68 141l350 353v-248h991q32 0 55 23t23 55v245l235 236v-533q0 -262 -262 -262h-1042v-221zM121 418v532q0 260 262 260h1042v222l351 -351l-351 -352v248h-991q-32 0 -55 -24t-23 -56v-244z" />
<glyph unicode="s" horiz-adv-x="1769" d="M41 797q0 130 50.5 248t136.5 204t204 136.5t248 50.5t248 -50.5t204 -136.5t136.5 -204t50.5 -248q0 -184 -96 -338l448 -451q47 -47 47 -110q0 -56 -40.5 -97t-96.5 -41q-66 0 -113 47l-448 449q-152 -98 -340 -98q-130 0 -248 50.5t-204 136.5t-136.5 204t-50.5 248z M324 797q0 -148 104 -252.5t252 -104.5t252 104.5t104 252.5t-104 252t-252 104t-252 -104t-104 -252z" />
<glyph unicode="t" horiz-adv-x="1882" d="M82 573q0 140 43.5 270.5t123 236.5t185 185.5t237 123t271.5 43.5q174 0 333 -68t274 -183.5t183 -274.5t68 -333q0 -175 -68 -334.5t-183 -274.5t-274 -183t-333 -68q-140 0 -271.5 43.5t-237 123t-185 185t-123 237t-43.5 271.5zM297 573q0 -175 86.5 -323.5t235 -235 t323.5 -86.5q174 0 322 86.5t234.5 235t86.5 323.5q0 174 -86.5 322.5t-234.5 235t-322 86.5q-175 0 -323.5 -86.5t-235 -235t-86.5 -322.5zM852 539v467q0 14 11 24t26 10h94q14 0 24.5 -10t10.5 -24v-396l340 -229q12 -9 15 -23q1 -4 1 -7q0 -10 -6 -19l-49 -80 q-9 -13 -23 -16h-8q-11 0 -20 6l-396 264q-2 1 -5 3t-5 3q-10 13 -10 27z" />
<glyph unicode="u" horiz-adv-x="1955" d="M297 1221v8q0 90 65 149q36 34 81 52t78 22q13 1 27 0q22 0 46 -2q40 -6 51.5 -9t28.5 -9l885 -330q17 -6 27.5 -21t10.5 -34v-1067q0 -25 -17 -42.5t-42 -17.5q-32 0 -49 27l-166 -156v-57q0 -22 -17.5 -41t-41.5 -19q-7 0 -23 4l-903 357q-37 13 -37 55v1100 q-4 20 -4 31zM416 1225q0 -20 8 -31l862 -350l4 -4l180 170l-837 311q-2 0 -2 2l-7 2q-8 2 -19 4.5t-25 4.5q-9 1 -19 0h-13q-17 -1 -35 -4.5t-36.5 -13t-34.5 -24.5q-26 -24 -26 -59v-8zM1317 813q6 -12 6 -25v-944l156 148v973z" />
<glyph unicode="v" horiz-adv-x="1935" d="M113 125v967q0 20 14.5 34.5t36.5 14.5h354q0 2 2 2l47 98q9 18 31 31.5t43 13.5h653q22 0 43.5 -13t30.5 -32l49 -98v-2h357q22 0 36.5 -14.5t14.5 -34.5v-967q0 -22 -14.5 -36.5t-36.5 -14.5h-1610q-22 0 -36.5 14.5t-14.5 36.5zM598 614q0 -153 108 -260.5t261 -107.5 q154 0 262 107t108 261t-108 262.5t-262 108.5q-152 0 -260.5 -108.5t-108.5 -262.5z" />
<glyph unicode="w" horiz-adv-x="1898" d="M113 623q-4 34 -4 67q-1 103 39 203q52 133 156 236.5t255 174.5t324 91q61 7 121 7q165 0 316 -51q206 -69 338 -212t154 -326q4 -33 4 -66q0 -148 -78 -286q-96 -168 -281.5 -280.5t-416.5 -137.5q-62 -8 -123.5 -7.5t-121.5 7.5q-166 -171 -358 -211q-48 -10 -84 -10 q-38 0 -63 11q-27 12 -7 26q164 125 164 272q0 12 -1 25q-140 79 -228 200.5t-105 266.5z" />
<glyph unicode="x" horiz-adv-x="1943" d="M70 1065q0 3 34 37l44.5 -44.5t34.5 -35.5t27 -25.5t21 -19.5t17 -12t14.5 -8t15 -3.5t16.5 -2t21 0.5h27q39 0 88.5 35t85 84.5t35.5 89.5v22q0 20 0.5 28t-4 22.5t-8 20t-19 23.5t-28 30t-43.5 43q-30 29 -48 47q9 11 22 24t15 13h4q72 0 144 -33q74 -34 128 -89 t88 -128.5t34 -147.5q0 -52 -33 -116l158 -160l-201 -201q-13 0 -33 -4l-145 143q-65 -30 -115 -30q-74 0 -147 34t-127 88.5t-88 127.5t-35 147zM268 -20q7 4 13 12l413 414q10 7 13 12q22 22 57 22q18 0 39 -6l397 397q1 1 10.5 15t13 20t10.5 21.5t8 27.5t-1 29.5 t-10 34.5q-33 61 -123 78h-2q-8 0 -16.5 2.5t-15.5 6t-17 10.5t-16 11.5t-17 14.5t-15 14.5t-15 15.5l-13 13l-7 7q-24 24 -30 34t0.5 25t32.5 40l147 150q35 35 54 35q15 0 65 -54q1 -1 11.5 -11t13 -13t11 -12t11.5 -13t9.5 -12t9 -13.5t6 -12.5t4.5 -13q8 -42 49 -94 q6 -8 37 -8.5t39 -8.5q40 -40 126 -125.5t118 -117.5q38 -38 60 -92.5t27 -111.5q3 -38 3 -78v-40q-2 -60 -12.5 -112.5t-21 -94t-18.5 -65.5l-8 -25l-108 105q0 3 0.5 9t1.5 25t0.5 37.5t-3.5 45.5t-8.5 52t-15.5 53t-24 51.5t-35 45.5t-47 37h-6q-21 0 -70 -45l-447 -444 q6 -21 6 -39q0 -35 -22 -58q-6 -3 -89.5 -86.5t-191.5 -192.5t-145 -145q-10 -10 -12 -14q-22 -22 -60 -22q-31 0 -66.5 19t-63.5 47.5t-48 63.5q-19 33 -19 64q0 35 23 62zM1077 205q4 20 4 33l201 200l285 -284l192 -142l21 -78l-213 -213l-76 21l-143 192zM1458 -45 q0 -37 25.5 -62.5t62.5 -25.5q38 0 64 25.5t26 62.5q0 38 -26 64t-64 26q-37 0 -62.5 -26t-25.5 -64z" />
<glyph unicode="y" horiz-adv-x="1837" d="M66 483v199q0 19 13 34.5t32 18.5l254 47q19 5 24.5 18.5t-4.5 28.5l-147 218q-9 15 -7 35.5t15 33.5l139 139q14 14 34.5 16.5t37.5 -7.5l215 -148q15 -9 29.5 -3t17.5 24l47 254q3 19 18.5 32t34.5 13h199q19 0 34.5 -13t18.5 -32l47 -254q3 -18 17.5 -24t29.5 3 l217 148q15 10 35.5 7.5t34.5 -16.5l139 -139q13 -13 15 -33.5t-7 -35.5l-147 -218q-10 -15 -4 -28.5t25 -18.5l253 -47q19 -3 32.5 -18.5t13.5 -34.5v-199q0 -19 -13.5 -34.5t-32.5 -18.5l-253 -47q-19 -3 -25 -16.5t4 -28.5l147 -217q9 -15 7 -37t-15 -35l-139 -139 q-13 -13 -34 -15t-36 9l-217 145q-15 11 -29.5 5.5t-17.5 -23.5l-47 -256q-3 -19 -18.5 -32t-34.5 -13h-199q-19 0 -34.5 13t-18.5 32l-47 256q-3 18 -17.5 23.5t-29.5 -5.5l-215 -145q-17 -11 -38 -9t-34 15l-139 139q-13 13 -15 35t7 37l147 217q11 15 5 28.5t-25 16.5 l-254 47q-19 3 -32 18.5t-13 34.5zM610 582q0 -128 90 -218t218 -90q129 0 219 90t90 218t-90 218.5t-219 90.5q-127 0 -217.5 -90.5t-90.5 -218.5z" />
<glyph unicode="z" horiz-adv-x="1507" d="M70 1241v7q0 15 6 33q8 22 22 34l88 90q31 27 70 27h6l387 -35q44 -4 74 -37l717 -715q14 -13 14 -32t-14 -31l-520 -523q-15 -12 -33 -12q-19 0 -31 12l-717 717q-32 36 -35 76zM88 666l686 -686q48 -48 113 -48q67 0 112 48l361 360l80 -80q14 -14 14 -32t-14 -31 l-520 -521q-14 -14 -32 -14t-32 14l-717 717q-12 12 -23 34t-12 40zM207 1196q0 -40 29 -68q26 -26 67 -26q42 0 68 26q28 28 28 68t-28 68t-68 28q-39 0 -67 -28q-29 -28 -29 -68z" />
<glyph unicode="{" horiz-adv-x="1560" d="M23 612l757 877l758 -877h-569v-835h-379v835h-567z" />
<glyph unicode="|" horiz-adv-x="1873" d="M82 645v500q0 119 83 202t202 83h712q119 0 202 -83t83 -202v-215h-213v215q0 29 -21.5 50.5t-50.5 21.5h-712q-29 0 -50.5 -21.5t-21.5 -50.5v-500q0 -29 21.5 -50.5t50.5 -21.5h6q-6 -34 -6 -71v-142q-119 0 -202 83t-83 202zM510 4v498q0 119 83.5 202.5t201.5 83.5 h712q117 0 201 -84t84 -202v-498q0 -118 -84 -202.5t-201 -84.5h-712q-118 0 -201.5 84t-83.5 203zM723 4q0 -30 21 -51t51 -21h712q29 0 49.5 20.5t20.5 51.5v498q0 30 -20.5 50.5t-49.5 20.5h-712q-30 0 -51 -20.5t-21 -50.5v-498z" />
<glyph unicode="}" horiz-adv-x="1560" d="M23 616h567v838h379v-838h569l-758 -874z" />
<glyph unicode="~" d="M82 571q0 175 68 334.5t183 274.5t274.5 183.5t334.5 68.5t334.5 -68.5t274.5 -183.5t183 -274.5t68 -334.5q0 -140 -43.5 -271.5t-123 -237t-185 -185t-237 -123t-271.5 -43.5t-271.5 43.5t-237 123t-185 185t-123 237t-43.5 271.5zM594 70h297l-80 -80h258l-80 80h297 v475h-340l297 342h-229v276h-154v-276h-229l295 -342h-332v-475zM682 156v303h518v-303h-518z" />
<glyph unicode="&#xad;" horiz-adv-x="1886" d="M82 567q0 175 68 334.5t183.5 275.5t275 184.5t335.5 68.5q175 0 334.5 -68.5t274.5 -184.5t183 -275.5t68 -334.5t-68 -334.5t-183 -275t-274.5 -184t-334.5 -68.5q-176 0 -335.5 68.5t-275 184t-183.5 275t-68 334.5zM459 528q0 -40 28 -68t68 -28h770q40 0 68 28 t28 68v80q0 40 -28 68.5t-68 28.5h-770q-40 0 -68 -28.5t-28 -68.5v-80z" />
<glyph unicode="&#xff;" horiz-adv-x="1705" />
<glyph unicode="&#x2000;" horiz-adv-x="755" />
<glyph unicode="&#x2001;" horiz-adv-x="1511" />
<glyph unicode="&#x2002;" horiz-adv-x="755" />
<glyph unicode="&#x2003;" horiz-adv-x="1511" />
<glyph unicode="&#x2004;" horiz-adv-x="503" />
<glyph unicode="&#x2005;" horiz-adv-x="377" />
<glyph unicode="&#x2006;" horiz-adv-x="251" />
<glyph unicode="&#x2007;" horiz-adv-x="251" />
<glyph unicode="&#x2008;" horiz-adv-x="188" />
<glyph unicode="&#x2009;" horiz-adv-x="302" />
<glyph unicode="&#x200a;" horiz-adv-x="83" />
<glyph unicode="&#x2010;" horiz-adv-x="1886" d="M82 567q0 175 68 334.5t183.5 275.5t275 184.5t335.5 68.5q175 0 334.5 -68.5t274.5 -184.5t183 -275.5t68 -334.5t-68 -334.5t-183 -275t-274.5 -184t-334.5 -68.5q-176 0 -335.5 68.5t-275 184t-183.5 275t-68 334.5zM459 528q0 -40 28 -68t68 -28h770q40 0 68 28 t28 68v80q0 40 -28 68.5t-68 28.5h-770q-40 0 -68 -28.5t-28 -68.5v-80z" />
<glyph unicode="&#x2011;" horiz-adv-x="1886" d="M82 567q0 175 68 334.5t183.5 275.5t275 184.5t335.5 68.5q175 0 334.5 -68.5t274.5 -184.5t183 -275.5t68 -334.5t-68 -334.5t-183 -275t-274.5 -184t-334.5 -68.5q-176 0 -335.5 68.5t-275 184t-183.5 275t-68 334.5zM459 528q0 -40 28 -68t68 -28h770q40 0 68 28 t28 68v80q0 40 -28 68.5t-68 28.5h-770q-40 0 -68 -28.5t-28 -68.5v-80z" />
<glyph unicode="&#x2012;" horiz-adv-x="1886" d="M82 567q0 175 68 334.5t183.5 275.5t275 184.5t335.5 68.5q175 0 334.5 -68.5t274.5 -184.5t183 -275.5t68 -334.5t-68 -334.5t-183 -275t-274.5 -184t-334.5 -68.5q-176 0 -335.5 68.5t-275 184t-183.5 275t-68 334.5zM459 528q0 -40 28 -68t68 -28h770q40 0 68 28 t28 68v80q0 40 -28 68.5t-68 28.5h-770q-40 0 -68 -28.5t-28 -68.5v-80z" />
<glyph unicode="&#x2013;" horiz-adv-x="1188" d="M82 567q0 175 40.5 334.5t109 275.5t163.5 184.5t200 68.5q104 0 198.5 -68.5t163 -184.5t109 -275.5t40.5 -334.5t-40.5 -334.5t-109 -275t-163 -184t-198.5 -68.5q-105 0 -200 68.5t-163.5 184t-109 275t-40.5 334.5zM306 528q0 -40 16.5 -68t40.5 -28h458 q24 0 40.5 28t16.5 68v80q0 40 -16.5 68.5t-40.5 28.5h-458q-24 0 -40.5 -28.5t-16.5 -68.5v-80z" />
<glyph unicode="&#x2014;" horiz-adv-x="2212" d="M82 567q0 175 81 334.5t218 275.5t327 184.5t399 68.5q208 0 398 -68.5t326.5 -184.5t217.5 -275.5t81 -334.5t-81 -334.5t-217.5 -275t-326.5 -184t-398 -68.5q-209 0 -399 68.5t-327 184t-218 275t-81 334.5zM530 528q0 -40 33.5 -68t81.5 -28h915q48 0 81 28t33 68v80 q0 40 -33 68.5t-81 28.5h-915q-48 0 -81.5 -28.5t-33.5 -68.5v-80z" />
<glyph unicode="&#x202f;" horiz-adv-x="302" />
<glyph unicode="&#x205f;" horiz-adv-x="377" />
<glyph unicode="&#xe000;" horiz-adv-x="1433" d="M0 0v1434h1434v-1434h-1434z" />
</font>
</defs>
</svg>
